<?xml version="1.0" encoding="utf-8"?>
<!DOCTYPE svg PUBLIC "-//W3C//DTD SVG 1.1//EN" "http://www.w3.org/Graphics/SVG/1.1/DTD/svg11.dtd">
<svg version="1.1" id="Layer_1" xmlns="http://www.w3.org/2000/svg" xmlns:xlink="http://www.w3.org/1999/xlink" x="0px" y="0px"
	 width="24px" height="24px" viewBox="0 0 24 24">
  <path d="M0 18.343l5.656 5.657 18.344-18.343-5.657-5.657-18.343 18.343zm21.171-12.686l-15.514 15.514-2.829-2.829 1.04-1.008 2.122 2.122.707-.707-2.122-2.122 1.414-1.414 1.414 1.414.708-.708-1.414-1.414 1.414-1.414 1.414 1.414.707-.707-1.414-1.414 1.414-1.414 2.122 2.122.707-.708-2.121-2.122 1.414-1.414 1.414 1.414.707-.707-1.414-1.414 1.414-1.414 1.414 1.414.707-.707-1.414-1.414 1.414-1.415 2.121 2.122.707-.707-2.121-2.122 1.039-1.071 2.829 2.83z"/>
</svg>
